<?xml version="1.0" encoding="UTF-8" standalone="no"?>
<!-- Created with Inkscape (http://www.inkscape.org/) -->

<svg
   width="48"
   height="48"
   viewBox="0 0 48 48"
   version="1.1"
   id="svg1"
   xmlns:inkscape="http://www.inkscape.org/namespaces/inkscape"
   xmlns:sodipodi="http://sodipodi.sourceforge.net/DTD/sodipodi-0.dtd"
   xmlns:xlink="http://www.w3.org/1999/xlink"
   xmlns="http://www.w3.org/2000/svg"
   xmlns:svg="http://www.w3.org/2000/svg">
  <sodipodi:namedview
     id="namedview1"
     pagecolor="#505050"
     bordercolor="#eeeeee"
     borderopacity="1"
     inkscape:showpageshadow="0"
     inkscape:pageopacity="0"
     inkscape:pagecheckerboard="0"
     inkscape:deskcolor="#505050"
     inkscape:document-units="px">
    <inkscape:page
       x="0"
       y="0"
       width="48"
       height="48"
       id="page2"
       margin="0"
       bleed="0" />
  </sodipodi:namedview>
  <defs
     id="defs1">
    <symbol
       id="sjjb-tourist.svg:clock"
       viewBox="0 0 549.48633 549.48438">
      <title
         id="title18">Clock</title>
      <path
         opacity="0.2"
         d="M 534.45803,274.7423 A 259.71505,259.71505 0 0 1 274.74299,534.45735 259.71505,259.71505 0 0 1 15.02794,274.7423 259.71505,259.71505 0 0 1 274.74299,15.02725 259.71505,259.71505 0 0 1 534.45803,274.7423 Z"
         id="path19" />
      <path
         opacity="0.5"
         d="m 258.50976,51.955078 v 97.394542 h 32.46485 V 51.955078 Z m 119.39453,23.789062 -25.2832,42.73438 27.94141,16.53125 25.28125,-42.736324 z m -201.98242,2.169922 -27.9414,16.529304 25.2832,42.736324 27.94141,-16.53124 z m 284.49024,67.298838 -41.95117,26.56445 17.36914,27.42774 41.94921,-26.5625 z m -366.99805,2.17187 -17.36914,27.42774 41.95117,26.56445 17.36914,-27.42969 z m -41.457031,111.125 v 32.46485 h 97.392581 v -32.46485 z m 350.179691,0 v 32.46485 h 97.39257 v -32.46485 z m -280.88477,82.41016 -41.951174,26.56445 17.367193,27.42774 41.951171,-26.56446 z m 309.15234,4.98437 -17.36718,27.42774 41.94922,26.56445 17.36914,-27.42969 z m -171.89453,54.23047 v 97.39258 h 32.46485 v -97.39258 z m -81.99023,4.98242 -25.2832,42.73438 27.9414,16.53125 25.28125,-42.73633 z m 198.61719,4.98243 -27.94141,16.53125 25.2832,42.73437 27.94141,-16.52929 z"
         id="path20" />
      <path
         d="M 274.74219,0 C 123.19892,0 0,123.19893 0,274.74219 c 0,151.54328 123.19892,274.74219 274.74219,274.74219 151.54327,0 274.74414,-123.19892 274.74414,-274.74219 C 549.48633,123.19892 426.28546,0 274.74219,0 Z m 0,30.054687 c 135.33004,10e-7 244.6875,109.357453 244.6875,244.687503 0,135.33004 -109.35746,244.6875 -244.6875,244.6875 -135.33006,0 -244.6875,-109.35745 -244.6875,-244.6875 10e-7,-135.33005 109.35744,-244.687503 244.6875,-244.687503 z m -89.4336,49.435547 a 5.7005698,5.7005698 0 0 0 -3.11523,0.757812 l -30.1836,17.42579 a 5.7005698,5.7005698 0 0 0 -2.08789,7.785154 l 98.41016,170.45117 -10.68164,4.9668 a 5.7005698,5.7005698 0 0 0 -2.76563,7.57031 l 14.69336,31.60352 a 5.7005698,5.7005698 0 0 0 7.57032,2.76758 l 14.40039,-6.69532 0.35546,0.61524 a 5.7005698,5.7005698 0 0 0 7.78711,2.08594 l 30.1836,-17.42578 a 5.7005698,5.7005698 0 0 0 2.8164,-4.40235 l 102.47266,-47.64062 a 5.7005698,5.7005698 0 0 0 2.76758,-7.57422 l -14.69336,-31.60352 a 5.7005698,5.7005698 0 0 0 -7.57227,-2.76367 L 290.4375,256.33595 189.97851,82.33399 a 5.7005698,5.7005698 0 0 0 -4.66992,-2.84375 z"
         id="path21" />
    </symbol>
    <symbol
       id="sjjb-shopping.svg:butcher2"
       viewBox="0 0 449.05478 515.55713">
      <title
         id="title10">Butcher 2</title>
      <path
         opacity="0.1"
         d="m 269.40616,344.82407 c 3.10049,25.73199 89.81324,145.37466 119.13056,167.07328 11.31614,8.37502 19.22803,1.54142 38.44834,-12.03587 19.21964,-13.58693 26.45536,-25.15717 19.4514,-41.51544 C 432.06068,424.7689 369.17685,304.22065 339.65278,284.90158 311.2466,243.55314 287.44453,212.29132 264.03693,154.96355 239.81816,95.6512 224.36114,35.39795 215.09358,0 182.12365,9.566404 127.52563,32.70689 93.93573,48.198106 56.511248,65.455526 29.739348,82.30512 0,98.25555 9.4069,125.60924 31.898898,192.9819 78.870718,265.76556 115.98567,323.27638 147.18878,369.06603 182.37516,403.902 Z"
         id="path11" />
      <path
         d="m 185.36679,375.6042 c 0,0 -42.9115,-50.32077 -87.530192,-123.5219 C 62.435218,194.00629 29.693808,117.51039 26.695378,109.38264 50.862728,91.81051 174.19311,36.268202 199.19803,30.825082 c 7.27089,28.089069 18.65369,83.095088 42.70348,136.534008 24.84709,55.21154 54.75708,98.25554 65.8894,112.80264 C 281.15151,305.29 185.36679,375.6042 185.36679,375.6042 Z m 84.03937,-30.78013 c 3.10049,25.73199 89.81324,145.37466 119.13056,167.07328 11.31614,8.37502 19.22803,1.54142 38.44834,-12.03587 19.21964,-13.58693 26.45536,-25.15717 19.4514,-41.51544 C 432.06068,424.7689 369.17685,304.22065 339.65278,284.90158 311.2466,243.55314 287.44453,212.29132 264.03693,154.96355 239.81816,95.6512 224.36114,35.39795 215.09358,0 182.12365,9.566404 127.52563,32.70689 93.93573,48.198106 56.511248,65.455526 29.739348,82.30512 0,98.25555 9.4069,125.60924 31.898898,192.9819 78.870718,265.76556 115.98567,323.27638 147.18878,369.06603 182.37516,403.902 Z M 139.01199,105.49699 c 0,-13.30434 11.39051,-24.09745 25.44143,-24.09745 14.05093,0 25.44147,10.79311 25.44147,24.09745 0,13.31396 -11.39054,24.10708 -25.44147,24.10708 -14.05092,0 -25.44143,-10.79312 -25.44143,-24.10708 z"
         id="path12" />
    </symbol>
  </defs>
  <g
     inkscape:groupmode="layer"
     id="layer2"
     inkscape:label="Layer 2">
    <rect
       style="fill:#ffffff;fill-opacity:1;stroke:none;stroke-width:17.4;stroke-linecap:round;stroke-linejoin:round"
       id="rect1"
       width="48"
       height="48"
       x="0"
       y="0"
       ry="8.8508272" />
  </g>
  <g
     inkscape:label="Layer 1"
     inkscape:groupmode="layer"
     id="layer1">
    <use
       xlink:href="#sjjb-tourist.svg:clock"
       width="549.48633"
       height="549.48438"
       style="fill:#ff0000;stroke:none"
       id="use1"
       transform="matrix(-0.04524508,0,0,-0.04524508,28.833075,28.832988)" />
    <use
       xlink:href="#sjjb-shopping.svg:butcher2"
       width="449.05478"
       height="515.55713"
       style="fill:#ff0000;stroke:none"
       id="use1-2"
       transform="matrix(0.04309461,0,0,0.04309461,24.676634,21.810742)" />
  </g>
</svg>
